<svg width="104" height="78" viewBox="0 0 104 78" fill="none" xmlns="http://www.w3.org/2000/svg">
<path d="M39.1077 0.675528L43.0992 6.97535C38.8339 9.32465 35.3142 11.4027 32.5486 13.2081C29.4134 15.1553 26.2566 17.7462 23.0753 20.9595C23.0753 20.9596 23.0752 20.9597 23.0752 20.9597L23.0728 20.9621C20.0589 24.0201 17.7173 27.2588 16.0741 30.682C14.4185 34.1313 13.2948 38.4943 12.6582 43.719L12.5216 44.8399L12.4533 45.4004H13.0179H14.1471H21.6426C27.8705 45.4004 32.5352 46.8739 35.8259 49.6338L35.8365 49.6427L35.8419 49.6473L35.8475 49.6518L35.8592 49.6611L35.8606 49.6621C39.1689 52.2728 40.9114 56.1772 40.9114 61.6454C40.9114 65.3416 39.4372 68.8883 36.3068 72.3158L36.3067 72.3157L36.3047 72.3182C36.3036 72.3194 36.3025 72.3206 36.3014 72.3218C33.4134 75.4956 29.3751 77.1509 23.985 77.1509C15.3476 77.1509 9.49497 74.5054 6.01157 69.5168C2.3815 64.2185 0.5 57.1994 0.5 48.3367C0.5 42.1658 1.90085 36.604 4.68231 31.6183L4.68284 31.6173L4.68668 31.6104L4.68805 31.6079C7.53609 26.4066 10.9897 21.7912 15.0482 17.7557C19.2408 13.5918 23.6799 10.0663 28.3647 7.17297C32.5469 4.59017 36.1273 2.42481 39.1077 0.675528Z" stroke="#DADEDF"/>
<path d="M99.1077 0.675528L103.099 6.97535C98.8339 9.32465 95.3142 11.4027 92.5486 13.2081C89.4134 15.1553 86.2566 17.7462 83.0753 20.9595C83.0753 20.9596 83.0752 20.9597 83.0752 20.9597L83.0728 20.9621C80.0589 24.0201 77.7173 27.2588 76.0741 30.682C74.4185 34.1313 73.2948 38.4943 72.6582 43.719L72.5216 44.8399L72.4533 45.4004H73.0179H74.1471H81.6426C87.8705 45.4004 92.5352 46.8739 95.8259 49.6338L95.8365 49.6427L95.8419 49.6473L95.8475 49.6518L95.8592 49.6611L95.8606 49.6621C99.1689 52.2728 100.911 56.1772 100.911 61.6454C100.911 65.3416 99.4372 68.8883 96.3068 72.3158L96.3067 72.3157L96.3047 72.3182C96.3036 72.3194 96.3025 72.3206 96.3014 72.3218C93.4134 75.4956 89.3751 77.1509 83.985 77.1509C75.3476 77.1509 69.495 74.5054 66.0116 69.5168C62.3815 64.2185 60.5 57.1994 60.5 48.3367C60.5 42.1658 61.9009 36.604 64.6823 31.6183L64.6828 31.6173L64.6867 31.6104L64.688 31.6079C67.5361 26.4066 70.9897 21.7912 75.0482 17.7557C79.2408 13.5918 83.6799 10.0663 88.3647 7.17297C92.5469 4.59017 96.1273 2.42481 99.1077 0.675528Z" stroke="#DADEDF"/>
</svg>
